<?xml version="1.0" standalone="no"?><!DOCTYPE svg PUBLIC "-//W3C//DTD SVG 1.1//EN"
        "http://www.w3.org/Graphics/SVG/1.1/DTD/svg11.dtd">
<svg t="1718003954391" class="icon" viewBox="0 0 1024 1024" version="1.1" xmlns="http://www.w3.org/2000/svg" p-id="1184"
     xmlns:xlink="http://www.w3.org/1999/xlink" width="200" height="200">
    <path d="M222.7 570.6h129.7v91.8H210.8z m578.6 0H671.6v91.8h141.6z"  p-id="1185"></path>
    <path d="M784.1 894.8H239.9c-19.3 0-37.9-8.2-51-22.5-13-14.3-19.5-33.5-17.7-52.7l41.6-457 10.9-6.2c6.9-3.9 73.4-38 288.1-38s281.2 34.1 288.1 38l10.9 6.2 41.6 457c1.8 19.1-4.6 38.4-17.6 52.7-12.8 14.3-31.4 22.5-50.7 22.5zM258.2 394L219 824c-0.5 5.9 1.4 11.6 5.4 16s9.5 6.9 15.5 6.9h544.2c5.9 0 11.4-2.4 15.4-6.8s5.9-10 5.3-15.9L765.6 394c-25.4-8.8-98.1-27.6-253.7-27.6S283.6 385.2 258.2 394z m567.1-134.8H198.7v-106h48v58h530.6v-58h48z"
           p-id="1186"></path>
    <path d="M488 235.2h48v107.2h-48z m24 555c-101.2 0-183.6-82.4-183.6-183.6S410.8 423 512 423s183.6 82.4 183.6 183.6S613.2 790.2 512 790.2z m0-319.2c-74.8 0-135.6 60.8-135.6 135.6S437.2 742.2 512 742.2s135.6-60.8 135.6-135.6S586.8 471 512 471z"
           p-id="1187"></path>
    <path d="M495.03 589.62l71.984-71.982 33.94 33.94-71.982 71.984z"  p-id="1188"></path>
</svg>
